<?xml version="1.0" encoding="UTF-8"?>
<svg id="Layer_1" data-name="Layer 1" xmlns="http://www.w3.org/2000/svg" version="1.1" viewBox="0 0 160 160">
  <path d="M124.115,56.842c10.19,19.152,7.216,43.468-8.921,59.607-19.784,19.782-51.859,19.782-71.641,0" 
    stroke="black" stroke-width="2" fill="none"/>
  <path d="M108.934,65.89c6.165,12.361,4.094,27.782-6.211,38.087-12.896,12.896-33.805,12.896-46.701,0" 
    stroke="black" stroke-width="2" fill="none"/>
  <path d="M92.518,73.778c2.912,5.585,2.024,12.637-2.667,17.327-5.788,5.787-15.17,5.787-20.957,0" 
    stroke="black" stroke-width="2" fill="none"/>
  <path d="M103.159,35.885c-19.152-10.191-43.468-7.216-59.607,8.921-19.783,19.784-19.783,51.859,0,71.641" 
    stroke="black" stroke-width="2" fill="none"/>
  <path d="M94.111,51.066c-12.361-6.163-27.782-4.094-38.087,6.21-12.896,12.896-12.896,33.805,0,46.701" 
    stroke="black" stroke-width="2" fill="none"/>
  <path d="M86.222,67.482c-5.585-2.912-12.637-2.024-17.327,2.667-5.787,5.787-5.787,15.17,0,20.957" 
    stroke="black" stroke-width="2" fill="none"/>
  <polygon points="98.334 47.618 101.087 58.915 112.382 61.666 131.285 42.762 119.989 40.011 117.238 28.715 98.334 47.618" 
    stroke="black" stroke-width="2" fill="none"/>
  <line x1="79.373" y1="80.627" x2="101.292" y2="58.708" 
    stroke="black" stroke-width="2"/>
</svg>
