<?xml version="1.0" encoding="UTF-8"?>
<svg id="Layer_1" data-name="Layer 1" xmlns="http://www.w3.org/2000/svg" version="1.1" viewBox="0 0 160 160">
  <ellipse cx="77.766" cy="82.484" rx="18.76" ry="18.562" stroke="black" stroke-width="2" fill="none"/>
  <path d="M52.283,49.448c2.984,7.322-.594,15.702-7.993,18.718-7.4,3.017-15.817-.472-18.803-7.794-2.985-7.32.594-15.702,7.993-18.718,7.4-3.017,15.819.472,18.803,7.794Z" 
    stroke="black" stroke-width="2" fill="none"/>
  <path d="M105.374,36.607c0,6.515-5.338,11.797-11.922,11.797s-11.922-5.282-11.922-11.797,5.338-11.797,11.922-11.797,11.922,5.282,11.922,11.797Z" 
    stroke="black" stroke-width="2" fill="none"/>
  <path d="M102.29,121.114c1.242,6.395-2.991,12.597-9.455,13.853-6.464,1.255-12.711-2.912-13.952-9.307-1.242-6.396,2.991-12.598,9.455-13.853,6.464-1.255,12.711,2.912,13.952,9.307Z" 
    stroke="black" stroke-width="2" fill="none"/>
  <path d="M134.259,77.849c2.795,5.004.959,11.349-4.098,14.174-5.057,2.824-11.421,1.057-14.216-3.947-2.795-5.004-.961-11.35,4.098-14.174,5.057-2.824,11.421-1.057,14.216,3.947Z" 
    stroke="black" stroke-width="2" fill="none"/>
  <path d="M47.204,103.969c3.906,4.223,3.614,10.847-.654,14.796-4.268,3.948-10.894,3.727-14.802-.496-3.907-4.223-3.614-10.847.654-14.796,4.268-3.948,10.896-3.727,14.802.496Z" 
    stroke="black" stroke-width="2" fill="none"/>
  <line x1="83.96" y1="64.305" x2="89.561" y2="47.76" stroke="black" stroke-width="2"/>
  <line x1="62.105" y1="71.386" x2="50.787" y2="63.402" stroke="black" stroke-width="2"/>
  <line x1="62.725" y1="93.627" x2="47.889" y2="104.789" stroke="black" stroke-width="2"/>
  <line x1="83.383" y1="100.296" x2="87.037" y2="112.136" stroke="black" stroke-width="2"/>
  <line x1="96.522" y1="82.637" x2="114.644" y2="82.785" stroke="black" stroke-width="2"/>
</svg>
