<?xml version="1.0" encoding="UTF-8"?>
<svg id="Layer_1" data-name="Layer 1" xmlns="http://www.w3.org/2000/svg" version="1.1" viewBox="0 0 160 160">
  <defs>
    <style>
      .cls-1 {
        fill: none;
        stroke: #000;
        stroke-miterlimit: 10;
        stroke-width: 2px;
      }
    </style>
  </defs>
  <path class="cls-1" d="M124.115,56.842c10.19,19.152,7.216,43.468-8.921,59.607-19.784,19.782-51.859,19.782-71.641,0"/>
  <path class="cls-1" d="M108.934,65.89c6.165,12.361,4.094,27.782-6.211,38.087-12.896,12.896-33.805,12.896-46.701,0"/>
  <path class="cls-1" d="M92.518,73.778c2.912,5.585,2.024,12.637-2.667,17.327-5.788,5.787-15.17,5.787-20.957,0"/>
  <path class="cls-1" d="M103.159,35.885c-19.152-10.191-43.468-7.216-59.607,8.921-19.783,19.784-19.783,51.859,0,71.641"/>
  <path class="cls-1" d="M94.111,51.066c-12.361-6.163-27.782-4.094-38.087,6.21-12.896,12.896-12.896,33.805,0,46.701"/>
  <path class="cls-1" d="M86.222,67.482c-5.585-2.912-12.637-2.024-17.327,2.667-5.787,5.787-5.787,15.17,0,20.957"/>
  <polygon class="cls-1" points="98.334 47.618 101.087 58.915 112.382 61.666 131.285 42.762 119.989 40.011 117.238 28.715 98.334 47.618"/>
  <line class="cls-1" x1="79.373" y1="80.627" x2="101.292" y2="58.708"/>
  <metadata>
    <sfw xmlns="http://ns.adobe.com/SaveForWeb/1.0/">
      <slices/>
      <sliceSourceBounds x="-233.64" y="553.87" width="6840.92" height="4414.66" bottomLeftOrigin="true"/>
    </sfw>
  </metadata>
</svg>