<?xml version="1.0" encoding="UTF-8"?>
<svg id="Layer_1" data-name="Layer 1" xmlns="http://www.w3.org/2000/svg" version="1.1" viewBox="0 0 160 160">
  <path d="M55.351,76.727c0-13.613,11.035-24.649,24.649-24.649s24.65,11.035,24.65,24.649" 
    stroke="black" stroke-width="2" fill="none"/>
  <path d="M91.476,34.777c0,6.339-5.139,11.477-11.477,11.477s-11.475-5.139-11.475-11.477,5.139-11.475,11.475-11.475,11.477,5.137,11.477,11.475Z" 
    stroke="black" stroke-width="2" fill="none"/>
  <path d="M39.029,115.451v-7.885c0-6.348,5.146-11.495,11.494-11.495h58.953c6.348,0,11.495,5.147,11.495,11.495v7.885" 
    stroke="black" stroke-width="2" fill="none"/>
  <path d="M120.972,132.446c-4.694,0-8.497-3.805-8.497-8.497s3.804-8.497,8.497-8.497,8.497,3.804,8.497,8.497-3.804,8.497-8.497,8.497Z" 
    stroke="black" stroke-width="2" fill="none"/>
  <path d="M80,132.446c-4.694,0-8.497-3.805-8.497-8.497s3.804-8.497,8.497-8.497,8.497,3.804,8.497,8.497-3.804,8.497-8.497,8.497Z" 
    stroke="black" stroke-width="2" fill="none"/>
  <path d="M39.029,132.446c-4.694,0-8.497-3.805-8.497-8.497s3.804-8.497,8.497-8.497,8.497,3.804,8.497,8.497-3.804,8.497-8.497,8.497Z" 
    stroke="black" stroke-width="2" fill="none"/>
  <line x1="79.869" y1="77.968" x2="79.869" y2="115.451" 
    stroke="black" stroke-width="2"/>
</svg>
