<?xml version="1.0" encoding="UTF-8"?>
<svg id="Layer_1" data-name="Layer 1" xmlns="http://www.w3.org/2000/svg" version="1.1" viewBox="0 0 160 160">
  <defs>
    <style>
      .cls-1 {
        fill: none;
        stroke: #000;
        stroke-miterlimit: 10;
        stroke-width: 2px;
      }
    </style>
  </defs>
  <path class="cls-1" d="M73.032,29.054c-17.117,7.24-29.127,24.189-29.127,43.941v1.855l-10.177,14.562c-2.026,2.893-1.322,6.88,1.57,8.905,1.104.774,2.367,1.149,3.621,1.157h5.29v15.257c0,4.282,3.471,7.753,7.753,7.753h8.425c1.569,0,3.076.624,4.186,1.735l6.729,6.728"/>
  <polyline class="cls-1" points="75.709 90.483 67.8 90.483 67.8 79.249"/>
  <line class="cls-1" x1="75.709" y1="98.594" x2="67.8" y2="98.594"/>
  <line class="cls-1" x1="81.762" y1="105.204" x2="81.762" y2="113.113"/>
  <line class="cls-1" x1="89.873" y1="105.204" x2="89.873" y2="113.113"/>
  <line class="cls-1" x1="89.873" y1="79.332" x2="89.873" y2="84.386"/>
  <polyline class="cls-1" points="97.332 62.627 89.869 70.089 89.869 79.333"/>
  <path class="cls-1" d="M104.327,62.365c1.859-1.859,1.859-4.874,0-6.733-1.859-1.859-4.874-1.859-6.734,0-1.859,1.859-1.859,4.874,0,6.733,1.859,1.859,4.874,1.859,6.734,0Z"/>
  <path class="cls-1" d="M63.04,74.487c0,2.63,2.132,4.761,4.761,4.761s4.761-2.131,4.761-4.761-2.131-4.761-4.761-4.761-4.761,2.131-4.761,4.761Z"/>
  <polyline class="cls-1" points="95.777 98.594 104.667 98.594 104.667 109.828"/>
  <path class="cls-1" d="M109.428,114.589c0-2.63-2.132-4.761-4.761-4.761s-4.762,2.131-4.762,4.761,2.132,4.761,4.762,4.761,4.761-2.131,4.761-4.761Z"/>
  <path class="cls-1" d="M117.905,107.859c0,2.63,2.132,4.761,4.761,4.761s4.762-2.131,4.762-4.761-2.132-4.761-4.762-4.761-4.761,2.131-4.761,4.761Z"/>
  <path class="cls-1" d="M72.383,47.786c0,2.63,2.132,4.761,4.761,4.761s4.762-2.131,4.762-4.761-2.132-4.761-4.762-4.761-4.761,2.131-4.761,4.761Z"/>
  <line class="cls-1" x1="106.446" y1="90.483" x2="95.929" y2="90.483"/>
  <path class="cls-1" d="M111.208,85.721c2.63,0,4.761,2.132,4.761,4.761s-2.131,4.762-4.761,4.762-4.761-2.132-4.761-4.762,2.131-4.761,4.761-4.761Z"/>
  <polyline class="cls-1" points="77.144 52.547 77.144 62.195 81.79 66.84 81.79 84.196"/>
  <polyline class="cls-1" points="114.063 76.291 122.666 84.895 122.666 103.098"/>
  <path class="cls-1" d="M107.067,76.029c-1.859-1.859-1.859-4.874,0-6.733,1.859-1.859,4.874-1.859,6.733,0,1.859,1.859,1.859,4.874,0,6.733-1.859,1.859-4.874,1.859-6.733,0Z"/>
  <path class="cls-1" d="M121.148,66.017c2.629,0,4.761-2.132,4.761-4.761s-2.132-4.762-4.761-4.762-4.761,2.132-4.761,4.762,2.131,4.761,4.761,4.761Z"/>
  <polyline class="cls-1" points="98.147 41.157 112.288 41.157 121.148 50.017 121.148 56.495"/>
  <path class="cls-1" d="M93.015,45.919c-2.63,0-4.761-2.132-4.761-4.761s2.131-4.762,4.761-4.762,4.761,2.132,4.761,4.762-2.132,4.761-4.761,4.761Z"/>
  <rect class="cls-1" x="76.218" y="84.973" width="19.359" height="19.359" rx="1.647" ry="1.647"/>
  <line class="cls-1" x1="104.667" y1="127.325" x2="104.667" y2="119.35"/>
  <metadata>
    <sfw xmlns="http://ns.adobe.com/SaveForWeb/1.0/">
      <slices/>
      <sliceSourceBounds x="-233.64" y="192.96" width="6901.67" height="4775.57" bottomLeftOrigin="true"/>
    </sfw>
  </metadata>
</svg>